<?xml version="1.0" encoding="UTF-8"?>
<svg width="100" height="65" xmlns="http://www.w3.org/2000/svg" xmlns:svg="http://www.w3.org/2000/svg" xmlns:xlink="http://www.w3.org/1999/xlink">
 <!-- Created with SVG-edit - http://svg-edit.googlecode.com/ -->
 <defs>
  <symbol id="svg_5" xmlns="http://www.w3.org/2000/svg" xmlns:xlink="http://www.w3.org/1999/xlink" viewBox="0 0 133 87">
   <style type="text/css">.st0{fill:#FF6600;}
	.st1{fill:#ECE2CB;}
	.st2{opacity:0.6;}
	.st3{fill:#271305;}</style>
   <g id="svg_1">
    <g id="svg_2">
     <path id="svg_4" class="st0" d="m117.099998,72.599998c0,-0.699997 0.099998,-1.299995 0.099998,-2c0,-29.099998 -22.099998,-52.699999 -49.399986,-52.699999c-27.299999,0 -49.400002,23.6 -49.400002,52.699999c0,0.700005 0.1,1.300003 0.1,2l98.600004,0l-0.000023,0l0.000008,0z"/>
     <g id="svg_8">
      <polygon id="svg_9" class="st0" points="30.8,72.6 9.8,72.6 9.8,71.7 30.8,61.1    "/>
      <polygon id="svg_10" class="st0" points="104.8,72.6 125.8,72.6 125.8,71.7 104.8,61.1    "/>
     </g>
    </g>
    <path id="svg_11" class="st1" d="m50.799999,20.5c0.5,0 14.899998,-8.2 33.700001,-1.200001c0.199997,2.300001 0.300003,3 0.300003,3s-16.300003,-7.499999 -32.700005,0c-0.899998,-1.199999 -1.299999,-1.799999 -1.299999,-1.799999z"/>
    <polygon id="svg_12" class="st1" points="125.8,71.7 9.7,71.7 9.7,72.6 126,72.6  "/>
    <rect id="svg_13" x="26.9" y="69.3" class="st1" width="13.6" height="2.6"/>
    <rect id="svg_14" x="62.1" y="69.3" class="st1" width="13.6" height="2.6"/>
    <rect id="svg_15" x="94.6" y="69.3" class="st1" width="13.6" height="2.6"/>
   </g>
   <g id="svg_16" class="st2">
    <path id="svg_17" class="st3" d="m66.900002,52.299999c-0.599998,0.799999 -1.5,1.400002 -2.700005,1.799999c-1.199997,0.400002 -2.499996,0.600002 -3.899998,0.600002c-1.5,0 -2.799999,-0.299999 -3.899998,-1c-1.100002,-0.700001 -2,-1.600002 -2.600002,-2.799999c-0.599998,-1.200001 -0.899998,-2.700001 -0.899998,-4.400002l0,-1.200001c0,-1.700001 0.299999,-3.200001 0.899998,-4.5c0.600002,-1.299999 1.400002,-2.200001 2.5,-2.899998c1.100002,-0.700001 2.400002,-1 3.799999,-1c2,0 3.600002,0.5 4.800003,1.5c1.199997,1 1.799995,2.399998 2.099998,4.299999l-3.5,0c-0.200001,-1 -0.5,-1.700001 -1,-2.200001c-0.5,-0.5 -1.299999,-0.700001 -2.200001,-0.700001c-1.200001,0 -2.099998,0.5 -2.799999,1.400002c-0.599998,0.899998 -1,2.299999 -1,4.099998l0,1.100002c0,1.799999 0.299999,3.199997 1,4.099998c0.700001,0.900002 1.700001,1.400002 3,1.400002c1.299999,0 2.299999,-0.300003 2.900002,-0.900002l0,-3l-3.200001,0l0,-2.599998l6.799999,0l0,6.899998l-0.099998,0z"/>
    <path id="svg_18" class="st3" d="m69.800003,54.5l0,-17.299999l5.299995,0c1.5,0 2.900002,0.299999 4.099998,1c1.200005,0.700001 2.100014,1.700001 2.800003,2.899998c0.699997,1.300003 1,2.700001 1,4.300003l0,0.799999c0,1.599998 -0.300003,3 -1,4.299999c-0.699997,1.200001 -1.599998,2.200001 -2.800003,2.900002c-1.199997,0.699997 -2.599998,1 -4.099998,1l-5.299995,0l0,0.099998zm3.599998,-14.400002l0,11.5l1.699997,0c1.400002,0 2.5,-0.5 3.200005,-1.399998c0.699997,-0.900002 1.099998,-2.200001 1.099998,-3.900002l0,-0.899998c0,-1.800003 -0.400002,-3.100002 -1.099998,-4c-0.700005,-0.900002 -1.800003,-1.400002 -3.200005,-1.400002l-1.699997,0l0,0.099998z"/>
   </g>
  </symbol>
 </defs>
 <g>
  <title>Layer 1</title>
  <ellipse fill="#FF0000" stroke="#000000" stroke-width="5" cx="139.5" cy="106.5" id="svg_3"/>
  <g id="svg_7"/>
  <use id="svg_6" xlink:href="#svg_5" transform="matrix(1.07532, 0, 0, 1.07532, 118.291, 162.819)" y="-156.114863" x="-115.111547"/>
 </g>
</svg>